<?xml version="1.0" encoding="UTF-8" ?>
<!DOCTYPE svg PUBLIC "-//W3C//DTD SVG 1.1//EN" "http://www.w3.org/Graphics/SVG/1.1/DTD/svg11.dtd">
<svg width="512pt" height="512pt" viewBox="0 0 512 512" version="1.1" xmlns="http://www.w3.org/2000/svg">
<g id="#ffffffff">
<path fill="#ffffff" opacity="1.00" d=" M 191.71 46.97 C 191.53 38.83 198.83 31.54 206.97 31.71 C 239.32 31.65 271.68 31.72 304.04 31.67 C 309.58 31.42 315.19 34.23 318.02 39.05 C 321.00 43.45 320.25 48.99 320.33 54.00 C 320.33 99.88 320.24 145.76 320.38 191.62 C 368.59 191.79 416.81 191.61 465.03 191.71 C 473.17 191.53 480.46 198.83 480.29 206.97 C 480.33 239.65 480.33 272.34 480.29 305.03 C 480.47 313.17 473.17 320.45 465.03 320.29 C 416.82 320.39 368.59 320.21 320.38 320.38 C 320.21 368.59 320.39 416.81 320.29 465.03 C 320.34 470.52 317.13 475.81 312.31 478.41 C 308.30 480.80 303.46 480.28 298.99 480.34 C 268.65 480.29 238.31 480.31 207.97 480.33 C 202.42 480.58 196.81 477.77 193.98 472.95 C 191.00 468.55 191.75 463.01 191.67 458.00 C 191.67 412.13 191.76 366.25 191.62 320.38 C 143.41 320.21 95.19 320.39 46.97 320.29 C 38.83 320.47 31.53 313.17 31.71 305.03 C 31.63 273.69 31.75 242.34 31.65 211.00 C 31.65 207.18 31.54 203.07 33.59 199.68 C 36.19 194.87 41.48 191.66 46.97 191.71 C 95.18 191.61 143.41 191.79 191.62 191.62 C 191.79 143.41 191.61 95.19 191.71 46.97 Z" />
</g>
</svg>
