<?xml version="1.0" encoding="UTF-8" ?>
<!DOCTYPE svg PUBLIC "-//W3C//DTD SVG 1.1//EN" "http://www.w3.org/Graphics/SVG/1.1/DTD/svg11.dtd">
<svg width="512pt" height="512pt" viewBox="0 0 512 512" version="1.1" xmlns="http://www.w3.org/2000/svg">
<g id="#dd2323ff">
<path fill="#dd2323" opacity="1.00" d=" M 90.50 0.00 L 109.50 0.00 C 118.26 2.82 126.24 7.73 132.74 14.25 C 173.90 55.18 214.67 96.51 255.99 137.29 C 296.95 96.82 337.51 55.94 378.20 15.19 C 384.98 8.35 393.32 2.97 402.50 0.00 L 421.50 0.00 C 430.26 2.82 438.24 7.73 444.74 14.25 C 460.39 29.59 475.60 45.40 491.33 60.67 C 500.09 69.07 508.48 78.67 512.00 90.53 L 512.00 109.50 C 509.18 118.26 504.27 126.24 497.75 132.74 C 456.82 173.90 415.49 214.67 374.71 255.99 C 415.18 296.95 456.06 337.51 496.81 378.20 C 503.64 384.98 509.03 393.32 512.00 402.50 L 512.00 421.50 C 509.18 430.26 504.27 438.24 497.75 444.74 C 482.40 460.39 466.60 475.60 451.33 491.33 C 442.92 500.09 433.33 508.48 421.47 512.00 L 402.50 512.00 C 393.74 509.18 385.76 504.27 379.26 497.75 C 338.10 456.82 297.33 415.49 256.01 374.71 C 215.05 415.18 174.49 456.06 133.80 496.81 C 127.02 503.64 118.68 509.03 109.50 512.00 L 90.50 512.00 C 81.74 509.18 73.76 504.27 67.26 497.75 C 51.61 482.40 36.40 466.60 20.67 451.33 C 11.91 442.92 3.52 433.33 0.00 421.47 L 0.00 402.50 C 2.82 393.74 7.73 385.76 14.25 379.26 C 55.18 338.10 96.51 297.33 137.29 256.01 C 96.82 215.05 55.94 174.49 15.19 133.80 C 8.35 127.02 2.97 118.68 0.00 109.50 L 0.00 90.53 C 3.52 78.67 11.91 69.07 20.67 60.67 C 36.40 45.40 51.61 29.59 67.26 14.25 C 73.76 7.73 81.74 2.82 90.50 0.00 Z" />
</g>
</svg>
