<?xml version="1.0" encoding="iso-8859-1"?>
<!-- Generator: Adobe Illustrator 19.0.0, SVG Export Plug-In . SVG Version: 6.00 Build 0)  -->
<svg version="1.1" id="Capa_1" xmlns="http://www.w3.org/2000/svg" xmlns:xlink="http://www.w3.org/1999/xlink" x="0px" y="0px"
	 viewBox="0 0 464 464" style="enable-background:new 0 0 464 464;" xml:space="preserve">
<g>
	<path style="fill:#322153;" d="M440,312c0-4.424-3.576-8-8-8h-8v-8c0-4.424-3.576-8-8-8s-8,3.576-8,8v8h-8c-4.424,0-8,3.576-8,8
		s3.576,8,8,8h8v8c0,4.424,3.576,8,8,8s8-3.576,8-8v-8h8C436.424,320,440,316.424,440,312z"/>
	<path style="fill:#322153;" d="M32,192c-4.424,0-8,3.576-8,8v8h-8c-4.424,0-8,3.576-8,8s3.576,8,8,8h8v8c0,4.424,3.576,8,8,8
		s8-3.576,8-8v-8h8c4.424,0,8-3.576,8-8s-3.576-8-8-8h-8v-8C40,195.576,36.424,192,32,192z"/>
</g>
<g>
	<path style="fill:#00F2A9;" d="M288,136h80c8.84,0,16-7.16,16-16s-7.16-16-16-16h-48V72H128v32H80c-8.84,0-16,7.16-16,16
		s7.16,16,16,16h80v32h32v-32h64v32h32V136z"/>
	<path style="fill:#00F2A9;" d="M72,376c0-13.232-10.768-24-24-24s-24,10.768-24,24s10.768,24,24,24S72,389.232,72,376z M40,376
		c0-4.416,3.584-8,8-8s8,3.584,8,8s-3.584,8-8,8S40,380.416,40,376z"/>
	<path style="fill:#00F2A9;" d="M432,0c-13.232,0-24,10.768-24,24s10.768,24,24,24s24-10.768,24-24S445.232,0,432,0z M432,32
		c-4.416,0-8-3.584-8-8s3.584-8,8-8s8,3.584,8,8S436.416,32,432,32z"/>
</g>
<path style="fill:#322153;" d="M368,64h-40V40c0-4.424-3.576-8-8-8h-56v-8c0-13.232-10.768-24-24-24h-32c-13.232,0-24,10.768-24,24
	v8h-56c-4.424,0-8,3.576-8,8v24H80c-13.232,0-24,10.768-24,24s10.768,24,24,24h8.696l28.688,315.624
	C119.272,448.36,136.4,464,157.224,464H320c22.056,0,40-17.944,40-40c0-16.776-10.44-31.448-25.664-37.272L359.312,112H368
	c13.232,0,24-10.768,24-24S381.232,64,368,64z M200,24c0-4.416,3.584-8,8-8h32c4.416,0,8,3.584,8,8v8h-48V24z M136,48h56h64h56v16
	H136V48z M336.104,406.32c0.584,0.528,1.128,1.088,1.656,1.672c0.464,0.512,0.904,1.048,1.32,1.6
	c0.44,0.584,0.864,1.168,1.256,1.792c0.408,0.656,0.76,1.336,1.104,2.032c0.296,0.6,0.608,1.192,0.856,1.816
	c0.336,0.848,0.576,1.728,0.816,2.616c0.144,0.544,0.336,1.056,0.44,1.616c0.288,1.48,0.456,2.992,0.456,4.536
	c0,13.256-10.744,24-24,24c-1.72,0-3.392-0.2-5.008-0.544c-1.4-0.296-2.744-0.72-4.04-1.256c-0.52-0.208-0.992-0.496-1.496-0.744
	c-0.808-0.4-1.6-0.8-2.352-1.28c-0.544-0.344-1.032-0.736-1.544-1.128c-0.64-0.488-1.272-0.984-1.856-1.536
	c-0.488-0.448-0.936-0.928-1.384-1.416c-0.536-0.584-1.032-1.192-1.512-1.832c-0.392-0.528-0.768-1.048-1.112-1.608
	c-0.44-0.704-0.824-1.44-1.192-2.192c-0.272-0.56-0.56-1.104-0.784-1.688c-0.352-0.88-0.6-1.8-0.848-2.72
	c-0.136-0.512-0.312-1-0.416-1.52c-0.288-1.472-0.456-2.984-0.456-4.544l0,0c0,0,0,0,0-0.008c0-13.256,10.744-24,24-24
	c2.752,0,5.352,0.56,7.808,1.408c0.256,0.088,0.528,0.144,0.784,0.24c0.936,0.36,1.808,0.816,2.688,1.28
	c0.44,0.232,0.888,0.448,1.304,0.712c0.736,0.456,1.424,0.968,2.104,1.496C335.176,405.52,335.648,405.904,336.104,406.32z
	 M318.504,384.032c-1.4,0.064-2.848,0.272-4.312,0.552c-17.712,2.608-31.544,16.768-33.712,34.616
	c-0.296,1.584-0.48,3.176-0.48,4.752c0,0.016,0,0.032,0,0.04l0,0l0,0c0,2.544,0.296,5.008,0.752,7.424
	c0.144,0.752,0.368,1.464,0.552,2.208c0.408,1.648,0.888,3.256,1.496,4.816c0.304,0.792,0.648,1.552,1,2.312
	c0.688,1.472,1.456,2.88,2.304,4.248c0.416,0.672,0.816,1.352,1.272,1.992c0.224,0.32,0.4,0.68,0.632,1H157.216
	c-12.504,0-22.776-9.384-23.904-21.832l-28.56-314.168H152v24c0,4.424,3.576,8,8,8h32c4.424,0,8-3.576,8-8v-24h48v24
	c0,4.424,3.576,8,8,8h32c4.424,0,8-3.576,8-8v-24h47.24L318.504,384.032z M168,128v-16h16v16H168z M264,128v-16h16v16H264z M368,96
	h-16h-64h-32h-64h-32H96H80c-4.416,0-8-3.584-8-8s3.584-8,8-8h48h192h48c4.416,0,8,3.584,8,8S372.416,96,368,96z"/>
<g>
</g>
<g>
</g>
<g>
</g>
<g>
</g>
<g>
</g>
<g>
</g>
<g>
</g>
<g>
</g>
<g>
</g>
<g>
</g>
<g>
</g>
<g>
</g>
<g>
</g>
<g>
</g>
<g>
</g>
</svg>
