<?xml version="1.0" encoding="UTF-8" ?>
<!DOCTYPE svg PUBLIC "-//W3C//DTD SVG 1.1//EN" "http://www.w3.org/Graphics/SVG/1.1/DTD/svg11.dtd">
<svg width="512pt" height="512pt" viewBox="0 0 512 512" version="1.1" xmlns="http://www.w3.org/2000/svg">
<g id="#ffffffff">
<path fill="#ffffff" opacity="1.00" d=" M 198.62 0.00 L 312.39 0.00 C 330.56 2.11 347.91 14.22 354.49 31.55 C 362.00 49.45 369.37 67.42 377.06 85.24 C 411.37 85.49 445.70 85.21 480.02 85.37 C 485.10 85.15 490.04 89.05 490.47 94.22 C 490.99 100.13 490.52 106.08 490.71 112.01 C 490.66 116.35 491.16 121.44 487.82 124.81 C 485.41 127.60 481.52 128.03 478.06 128.03 C 468.05 128.06 458.05 127.90 448.04 128.04 C 447.94 233.36 448.05 338.68 447.98 444.00 C 448.18 462.85 441.71 481.93 428.88 495.90 C 421.36 504.61 410.77 510.42 399.36 512.00 L 113.62 512.00 C 105.41 511.09 97.34 508.28 90.73 503.25 C 79.90 494.97 71.85 483.20 67.71 470.24 C 64.99 461.78 64.00 452.85 64.00 444.00 C 63.97 338.68 64.05 233.36 63.96 128.04 C 53.27 127.84 42.58 128.18 31.90 127.95 C 27.79 128.04 23.72 125.64 22.21 121.75 C 20.65 117.00 21.52 111.90 21.32 107.00 C 21.57 101.78 20.53 96.31 22.31 91.28 C 24.05 87.15 28.63 85.09 32.94 85.32 C 66.94 85.27 100.94 85.47 134.94 85.24 C 142.64 67.42 149.99 49.45 157.51 31.55 C 163.95 14.46 180.89 2.69 198.62 0.00 M 196.66 48.64 C 191.74 60.86 186.24 72.85 181.63 85.19 C 204.75 85.52 227.87 85.24 251.00 85.33 C 277.47 85.23 303.95 85.55 330.41 85.18 C 326.22 73.73 321.16 62.63 316.74 51.28 C 315.60 48.62 314.74 45.48 312.08 43.92 C 309.39 42.19 306.03 42.75 303.00 42.63 C 270.32 42.72 237.64 42.62 204.97 42.68 C 201.16 42.42 197.84 45.14 196.66 48.64 M 106.76 128.04 C 106.52 232.69 106.75 337.35 106.65 442.00 C 106.40 449.64 108.11 457.38 112.04 463.97 C 113.66 466.38 115.64 469.56 118.97 469.32 C 210.32 469.34 301.68 469.34 393.03 469.32 C 395.84 469.62 397.71 467.19 399.18 465.17 C 403.67 458.37 405.61 450.10 405.35 442.00 C 405.25 337.35 405.48 232.69 405.24 128.04 C 305.75 127.97 206.25 127.98 106.76 128.04 Z" />
<path fill="#ffffff" opacity="1.00" d=" M 156.37 192.55 C 163.16 191.35 170.13 192.30 177.00 191.97 C 181.33 191.89 186.49 191.79 189.47 195.54 C 192.09 198.35 192.03 202.41 192.03 206.00 C 191.94 268.69 192.04 331.39 191.98 394.08 C 192.04 397.23 191.11 400.52 188.64 402.63 C 185.31 405.91 180.27 405.28 176.00 405.36 C 170.01 405.17 164.00 405.66 158.03 405.11 C 152.67 404.56 148.94 399.23 149.34 394.03 C 149.34 330.34 149.32 266.65 149.35 202.97 C 149.14 198.46 151.96 193.86 156.37 192.55 Z" />
<path fill="#ffffff" opacity="1.00" d=" M 241.43 192.64 C 247.51 191.32 253.82 192.29 260.00 191.98 C 264.75 192.14 270.43 191.09 274.13 194.85 C 276.75 197.10 277.38 200.71 277.34 204.00 C 277.33 267.00 277.31 330.00 277.35 393.00 C 277.44 396.55 276.71 400.46 273.79 402.80 C 270.33 405.96 265.31 405.26 261.00 405.36 C 255.01 405.16 248.99 405.70 243.03 405.06 C 237.81 404.37 234.29 399.10 234.68 394.01 C 234.64 332.67 234.69 271.33 234.65 210.00 C 234.71 206.38 234.35 202.70 235.20 199.15 C 236.05 196.15 238.52 193.69 241.43 192.64 Z" />
<path fill="#ffffff" opacity="1.00" d=" M 328.27 192.30 C 336.51 191.69 344.83 192.00 353.09 192.11 C 358.68 192.18 362.99 197.54 362.65 202.97 C 362.67 266.65 362.66 330.34 362.66 394.03 C 363.04 399.23 359.34 404.56 353.98 405.11 C 348.00 405.66 341.99 405.17 336.00 405.36 C 331.73 405.28 326.68 405.92 323.36 402.63 C 320.57 400.27 319.87 396.50 319.99 393.04 C 320.05 329.67 319.95 266.30 320.03 202.93 C 319.78 198.00 323.24 193.03 328.27 192.30 Z" />
</g>
</svg>
